PathFileType	3	(X/Y/Z)	D:\Students\303\Renee\Session 1\Renee Cal 01.trc
DataRate	CameraRate	NumFrames	NumMarkers	Units	OrigDataRate	OrigDataStartFrame	OrigNumFrames
100.0	100.0	16	27	mm	100.0	75	599	
Frame#	Time	RASIS			LASIS			RPSIS			LPSIS			RKneeLateral			RKneeMedial			LKneeLateral			LKneeMedial			RAnkleLateral			RAnkleMedial			RShank			RFibula			LAnkleLateral			LAnkleMedial			LShank			LFibula			RMT2			RHeel			RMT5			RToe			LMT2			LHeel			LMT5			LToe			Sternum			LShoulder			RShoulder			
		X1	Y1	Z1	X2	Y2	Z2	X3	Y3	Z3	X4	Y4	Z4	X5	Y5	Z5	X6	Y6	Z6	X7	Y7	Z7	X8	Y8	Z8	X9	Y9	Z9	X10	Y10	Z10	X11	Y11	Z11	X12	Y12	Z12	X13	Y13	Z13	X14	Y14	Z14	X15	Y15	Z15	X16	Y16	Z16	X17	Y17	Z17	X18	Y18	Z18	X19	Y19	Z19	X20	Y20	Z20	X21	Y21	Z21	X22	Y22	Z22	X23	Y23	Z23	X24	Y24	Z24	X25	Y25	Z25	X26	Y26	Z26	X27	Y27	Z27	
75	0.74	-146.72487	885.22632	-506.62326	-421.3215	886.88037	-504.79572	-221.85686	944.29993	-296.56641	-341.95627	947.67358	-292.94885	-115.15015	428.63791	-388.06204				-479.87198	441.49854	-373.65295										-105.81809	313.97449	-367.65353	-113.59634	389.23785	-378.65372	-452.04388	56.58424	-361.14081				-475.72403	313.42783	-390.2493	-482.78442	409.60349	-364.93414	-177.72986	23.535597	-515.89478	-189.65244	21.438374	-304.37064	-136.48956	20.387653	-495.63486				-415.41058	21.241777	-523.91132	-402.99283	30.020327	-312.62067	-453.55975	19.194157	-497.49405				-290.92343	1309.1526	-483.00232	-425.89807	1358.2909	-374.49274	-131.05632	1366.3308	-406.53595
76	0.75	-146.69353	885.17535	-506.6145	-421.2876	886.87048	-504.8631	-221.85556	944.26349	-296.60291	-341.95895	947.62646	-293.00079	-115.15392	428.60474	-388.11072				-479.85071	441.50113	-373.70114										-105.81071	313.92648	-367.68533	-113.63432	389.20929	-378.66791	-452.03387	56.586693	-361.14963				-475.69458	313.4191	-390.30463	-482.7775	409.59186	-365.01123	-177.7251	23.527765	-515.90881	-189.6608	21.442581	-304.38556	-136.47816	20.387802	-495.64825				-415.38992	21.230984	-523.92249	-402.87628	29.904615	-312.67682	-453.56137	19.196629	-497.50113				-290.95956	1309.1279	-483.04193	-425.94376	1358.2546	-374.5683	-131.08424	1366.3552	-406.60321
77	0.76	-146.66895	885.13336	-506.60873	-421.24762	886.85333	-504.92734	-221.86598	944.25421	-296.62054	-341.96887	947.60693	-293.03683	-115.16351	428.58188	-388.14862				-479.85446	441.50562	-373.75446										-105.82476	313.90063	-367.6806	-113.66038	389.17236	-378.70468	-452.01978	56.588364	-361.15189				-475.69089	313.41959	-390.35242	-482.77982	409.58426	-365.07745	-177.73598	23.53248	-515.91559	-189.68987	21.456802	-304.39664	-136.47485	20.390545	-495.64658				-415.36902	21.230919	-523.9339	-402.95221	29.9718	-312.6189	-453.54614	19.197155	-497.49487				-290.99347	1309.13	-483.08698	-425.99127	1358.2371	-374.62918	-131.12334	1366.3881	-406.66159
78	0.77	-146.61131	885.14941	-506.62549	-421.20572	886.85217	-504.9686	-221.88199	944.25891	-296.63019	-341.97955	947.58087	-293.06992	-115.18656	428.58817	-388.16949				-479.85321	441.50793	-373.79376										-105.85035	313.90482	-367.69061	-113.66851	389.18143	-378.72797	-452.004	56.589149	-361.14551				-475.68753	313.41592	-390.38626	-482.76901	409.5784	-365.13217	-177.72452	23.540354	-515.90656	-189.71559	21.57341	-304.31204	-136.46848	20.403526	-495.64273				-415.34848	21.231289	-523.93176	-402.92911	29.995224	-312.6106	-453.54642	19.197937	-497.50125				-291.02472	1309.1361	-483.12463	-426.0397	1358.2136	-374.69061	-131.18111	1366.4287	-406.71686
79	0.78	-146.59309	885.14386	-506.61945	-421.18286	886.85059	-505.03873	-221.91797	944.26996	-296.6315	-342.00955	947.58917	-293.09192	-115.2155	428.59744	-388.18201				-479.84058	441.51373	-373.82635										-105.89217	313.90601	-367.67609	-113.70686	389.18832	-378.72491	-451.99649	56.598045	-361.15582				-475.68546	313.41757	-390.4241	-482.76117	409.58618	-365.17719	-177.73228	23.547678	-515.92413	-189.73564	21.480759	-304.40131	-136.46678	20.402624	-495.6442				-415.34525	21.233002	-523.93481	-402.9361	29.978798	-312.63141	-453.54727	19.206326	-497.49863				-291.05881	1309.1594	-483.1767	-426.09402	1358.2052	-374.75122	-131.23666	1366.4988	-406.7587
80	0.79	-146.57663	885.15875	-506.60437	-421.12686	886.85236	-505.07486	-221.95331	944.29364	-296.60974	-342.04193	947.58453	-293.11456	-115.25375	428.60071	-388.17078				-479.84186	441.526	-373.86063										-105.90377	313.92563	-367.66415	-113.73915	389.21243	-378.72263	-451.9996	56.61861	-361.14697				-475.69058	313.41766	-390.44537	-482.77209	409.59445	-365.19824	-177.72235	23.560814	-515.91327	-189.76573	21.602432	-304.3078	-136.47493	20.415962	-495.63629				-415.33856	21.2346	-523.93427	-402.94913	30.022789	-312.61673	-453.53815	19.224709	-497.48929				-291.09882	1309.1982	-483.20856	-426.15863	1358.1912	-374.81375	-131.29642	1366.5642	-406.7998
81	0.8	-146.5507	885.19849	-506.61774	-421.1123	886.8717	-505.14777	-221.99413	944.32013	-296.59869	-342.07956	947.59558	-293.12292	-115.28517	428.63446	-388.17664				-479.81189	441.51779	-373.89438										-105.94232	313.95248	-367.66571	-113.75661	389.2334	-378.70813	-451.98087	56.620083	-361.13739				-475.69608	313.42435	-390.46841	-482.76382	409.5892	-365.23029	-177.70221	23.555325	-515.91296	-189.77957	21.605146	-304.3092	-136.46355	20.401108	-495.63788				-415.323	21.235958	-523.93451	-402.96323	30.063158	-312.60324	-453.53528	19.232529	-497.48907				-291.12283	1309.2067	-483.25412	-426.21887	1358.2017	-374.87231	-131.34128	1366.6315	-406.84442
82	0.81	-146.55255	885.22961	-506.65189	-421.10013	886.87964	-505.18436	-222.02727	944.32965	-296.59683	-342.1225	947.61963	-293.13306	-115.3064	428.6554	-388.16486				-479.80533	441.53711	-373.91196										-105.97003	313.98019	-367.66263	-113.76114	389.27676	-378.71976	-451.97662	56.623283	-361.13385				-475.6774	313.41641	-390.4809	-482.75113	409.6015	-365.24619	-177.7049	23.545864	-515.91241	-189.77939	21.603231	-304.32358	-136.45641	20.407425	-495.6329				-415.3046	21.229834	-523.92664	-402.96432	30.073517	-312.64374	-453.5282	19.230524	-497.4931				-291.13953	1309.2111	-483.2894	-426.27704	1358.2216	-374.93655	-131.40488	1366.7107	-406.88757
83	0.82	-146.54997	885.26917	-506.68002	-421.11725	886.88196	-505.2486	-222.04489	944.33282	-296.60007	-342.15118	947.63507	-293.14005	-115.3147	428.67679	-388.17044				-479.81	441.52927	-373.94403										-105.97118	313.99826	-367.65744	-113.7691	389.28812	-378.73553	-451.9617	56.627277	-361.12384				-475.65735	313.4093	-390.48236	-482.73907	409.61075	-365.26544	-177.69272	23.543497	-515.91711	-189.78549	21.585962	-304.34387	-136.44443	20.39192	-495.63641				-415.28772	21.212299	-523.93683	-402.97253	30.110008	-312.62341	-453.52216	19.215565	-497.48785				-291.15396	1309.1982	-483.33368	-426.33606	1358.2429	-374.99756	-131.44379	1366.7711	-406.94153
84	0.83	-146.5666	885.25684	-506.67953	-421.11096	886.88312	-505.28036	-222.05081	944.31641	-296.60504	-342.17169	947.63879	-293.14816	-115.32207	428.67007	-388.17014				-479.78818	441.53809	-373.94101										-105.97871	314.00909	-367.66595	-113.76781	389.29944	-378.73804	-451.94565	56.631882	-361.11746				-475.62277	313.38971	-390.48755	-482.72247	409.61389	-365.26529	-177.68439	23.529354	-515.92004	-189.77867	21.583208	-304.345	-136.43773	20.385603	-495.6351				-415.27585	21.200809	-523.9472	-402.96478	30.105984	-312.62793	-453.50812	19.208492	-497.50156				-291.17603	1309.2052	-483.38632	-426.37274	1358.2576	-375.05774	-131.49374	1366.8152	-407.00552
85	0.84	-146.58815	885.24091	-506.69431	-421.10925	886.87103	-505.27884	-222.04498	944.29669	-296.6048	-342.17413	947.63489	-293.15848	-115.32098	428.65607	-388.1712				-479.77127	441.53574	-373.94778										-105.98402	314.00208	-367.65939	-113.77669	389.28723	-378.73727	-451.92722	56.620541	-361.1171				-475.61459	313.3783	-390.49426	-482.71115	409.60263	-365.29761	-177.68987	23.51042	-515.93408	-189.77092	21.573254	-304.34647	-136.43152	20.375591	-495.64133				-415.22852	21.167212	-523.95612	-402.93137	30.091526	-312.65048	-453.49417	19.193228	-497.50415				-291.18927	1309.1871	-483.43356	-426.40289	1358.2537	-375.11908	-131.53452	1366.8484	-407.06516
86	0.85	-146.59566	885.23352	-506.70355	-421.11072	886.85352	-505.29562	-222.02881	944.26758	-296.61771	-342.16254	947.60858	-293.15884	-115.32774	428.64862	-388.17944				-479.76337	441.51202	-373.97131										-105.9873	313.99304	-367.67639	-113.7735	389.28922	-378.76175	-451.92032	56.618561	-361.11639				-475.60562	313.36945	-390.49808	-482.6958	409.59042	-365.30621	-177.68634	23.511169	-515.93445	-189.7719	21.564953	-304.3483	-136.43945	20.370062	-495.64432				-415.22903	21.158604	-523.96472	-402.92471	30.104504	-312.59946	-453.50348	19.192986	-497.51227				-291.22714	1309.1901	-483.487	-426.43549	1358.251	-375.17554	-131.57814	1366.8824	-407.1178
87	0.86	-146.62906	885.21472	-506.70798	-421.12936	886.85437	-505.29587	-222.01729	944.23193	-296.62958	-342.15457	947.58521	-293.16376	-115.33646	428.64008	-388.17438				-479.77377	441.51968	-373.97549										-105.98724	313.98199	-367.68622	-113.7813	389.27356	-378.7543	-451.89206	56.578529	-361.11243				-475.60709	313.38336	-390.48694	-482.68796	409.578	-365.30469	-177.70859	23.516005	-515.94153	-189.7859	21.579008	-304.35953	-136.44554	20.377413	-495.64401				-415.25223	21.175795	-523.96423	-402.87833	30.05394	-312.64984	-453.50897	19.190603	-497.50711				-291.24667	1309.2103	-483.52783	-426.45932	1358.2361	-375.22009	-131.61774	1366.9097	-407.164
88	0.87	-146.64384	885.19415	-506.69116	-421.14355	886.85736	-505.2916	-222.01366	944.21649	-296.62442	-342.12769	947.55432	-293.15833	-115.33614	428.63358	-388.18005				-479.77194	441.50571	-373.97757										-105.99815	313.957	-367.66263	-113.80305	389.24246	-378.74484	-451.88702	56.582817	-361.112				-475.62384	313.40543	-390.47916	-482.69061	409.58453	-365.28964	-177.70724	23.536121	-515.94531	-189.79175	21.589834	-304.34631	-136.45929	20.398024	-495.64044				-415.2627	21.179789	-523.96429	-402.83295	30.022591	-312.66177	-453.52225	19.210518	-497.51175				-291.29529	1309.2313	-483.57791	-426.46948	1358.2332	-375.25269	-131.638	1366.9136	-407.20755
89	0.88	-146.65852	885.16058	-506.67102	-421.14908	886.86133	-505.2995	-222.00546	944.20776	-296.62692	-342.11783	947.51831	-293.15863	-115.34296	428.61874	-388.19846				-479.76648	441.5062	-373.97336										-106.00636	313.94745	-367.64038	-113.83706	389.22305	-378.71378	-451.8728	56.560139	-361.10599				-475.63272	313.41562	-390.47302	-482.69714	409.57693	-365.2995	-177.73186	23.548006	-515.94727	-189.80704	21.616745	-304.33655	-136.46562	20.399513	-495.64481				-415.2677	21.185766	-523.97424	-402.84155	30.040939	-312.59015	-453.53653	19.230234	-497.50635				-291.32077	1309.2524	-483.61737	-426.47595	1358.2346	-375.29172	-131.67767	1366.9607	-407.23846
90	0.89	-146.67615	885.15564	-506.65295	-421.14825	886.87012	-505.28543	-221.99721	944.21613	-296.62076	-342.10629	947.51019	-293.14438	-115.35692	428.61887	-388.17505				-479.78329	441.51352	-373.96378										-106.01115	313.94382	-367.61111	-113.84074	389.24146	-378.71588	-451.86691	56.553238	-361.1098				-475.6539	313.42102	-390.46689	-482.69293	409.5795	-365.26926	-177.72717	23.566616	-515.95227	-189.8382	21.630663	-304.32553	-136.46664	20.406576	-495.64957				-415.29053	21.200539	-523.97632	-402.80325	30.002813	-312.65842	-453.53864	19.23419	-497.51334				-291.36047	1309.2902	-483.64038	-426.50058	1358.246	-375.31836	-131.71921	1367.0011	-407.27286
